# xmcd CD database file
#
# Track frame offsets:
#	150
#	2995
#	14512
#	24952
#	36370
#	51972
#	70607
#	82797
#	98017
#	115795
#	130200
#	154607
#	164102
#	177377
#	192515
#	211207
#	245605
#	257480
#	269375
#	291715
#	303080
#	312702
#	326617
#
# Disc length: 4669 seconds
#
# Revision: 1
# Processed by: cddbd v1.5.2PL0 Copyright (c) Steve Scherf et al.
# Submitted via: CDex 1.51
#
DISCID=48123b17
DTITLE=Otis Redding - Otis! The Definitive Otis Redding - CD 4
DYEAR=1993
DGENRE=Soul
TTITLE0=Inrtroduction [live]
TTITLE1=Shake [live]
TTITLE2=Pain In My Heart [live]
TTITLE3=These Arms Of Mine [live]
TTITLE4=I Can't Turn You Loose [live]
TTITLE5=I've Been Loving You Too Long [live]
TTITLE6=My Girl [live]
TTITLE7=Your One And Only Man [live]
TTITLE8=Good To Me [live]
TTITLE9=Day Tripper [live]
TTITLE10=Just One More Day [live]
TTITLE11=Mr Pitiful [live]
TTITLE12=(I Can't Get No) Satisfaction [live]
TTITLE13=I'm Depending On You [live]
TTITLE14=Fa-Fa-Fa-Fa-Fa (Sad Song) [live]
TTITLE15=Chained And Bound [live]
TTITLE16=Ole Man Trouble [live]
TTITLE17=Any Ole Way [live]
TTITLE18=Papa's Got A Brand New Bag [live]
TTITLE19=Security [live]
TTITLE20=Hard Day's Night [live]
TTITLE21=Respect [live]
TTITLE22=Try A Little Tenderness [live]
EXTD=YEAR: 1993
EXTT0=
EXTT1=
EXTT2=
EXTT3=
EXTT4=
EXTT5=
EXTT6=
EXTT7=
EXTT8=
EXTT9=
EXTT10=
EXTT11=
EXTT12=
EXTT13=
EXTT14=
EXTT15=
EXTT16=
EXTT17=
EXTT18=
EXTT19=
EXTT20=
EXTT21=
EXTT22=
PLAYORDER=
